<svg xmlns="http://www.w3.org/2000/svg" viewBox="0 0 798 90" width="798" height="90">
	<defs>
		<clipPath clipPathUnits="userSpaceOnUse" id="cp1">
			<path d="M-281 -356L1085 -356L1085 454L-281 454Z" />
		</clipPath>
	</defs>
	<style>
		tspan { white-space:pre }
		.shp0 { fill: #000000 } 
	</style>
	<g id="Page 1" clip-path="url(#cp1)">
		<path id="Path 2" fill-rule="evenodd" class="shp0" d="M48.12 0.37L82.69 90L69.87 90L61.94 69.37L21.5 69.37L13.56 90L0.75 90L35.31 0.37L48.12 0.37ZM26.37 56.56L57 56.56L41.75 17.06L26.37 56.56ZM110.87 90L98.06 90L98.06 0.37L110.87 0.37L164.75 69.87L164.75 0.37L177.56 0.37L177.56 90L164.75 90L110.87 20.5L110.87 90ZM192.87 0.37L264.56 0.37L264.56 13.19L235.12 13.19L235.12 90L222.31 90L222.31 13.19L192.87 13.19L192.87 0.37ZM292.75 0.37L292.75 90L279.94 90L279.94 0.37L292.75 0.37ZM367 51.62C365.25 51.62 363.58 51.29 362 50.62C360.46 49.92 359.1 49 357.94 47.87C356.77 46.71 355.85 45.35 355.19 43.81C354.52 42.23 354.19 40.56 354.19 38.81L354.19 13.19C354.19 11.44 354.52 9.79 355.19 8.25C355.85 6.67 356.77 5.31 357.94 4.19C359.1 3.02 360.46 2.1 362 1.44C363.58 0.73 365.25 0.37 367 0.37L410.5 0.37C412.25 0.37 413.9 0.73 415.44 1.44C417.02 2.1 418.4 3.02 419.56 4.19C420.73 5.31 421.65 6.67 422.31 8.25C422.98 9.79 423.31 11.44 423.31 13.19L423.31 24.75L410.5 24.75L410.5 13.19L367 13.19L367 38.81L410.5 38.81C412.25 38.81 413.9 39.15 415.44 39.81C417.02 40.48 418.4 41.4 419.56 42.56C420.73 43.73 421.65 45.1 422.31 46.69C422.98 48.23 423.31 49.87 423.31 51.62L423.31 77.19C423.31 78.94 422.98 80.6 422.31 82.19C421.65 83.73 420.73 85.08 419.56 86.25C418.4 87.42 417.02 88.33 415.44 89C413.9 89.67 412.25 90 410.5 90L365.75 90C364 90 362.33 89.67 360.75 89C359.21 88.33 357.85 87.42 356.69 86.25C355.52 85.08 354.6 83.73 353.94 82.19C353.27 80.6 352.94 78.94 352.94 77.19L352.94 65.69L365.75 65.69L365.75 77.19L410.5 77.19L410.5 51.62L367 51.62ZM523.25 77.19C523.25 78.94 522.92 80.6 522.25 82.19C521.58 83.73 520.67 85.08 519.5 86.25C518.33 87.42 516.96 88.33 515.37 89C513.83 89.67 512.19 90 510.44 90L459.25 90C457.5 90 455.83 89.67 454.25 89C452.71 88.33 451.35 87.42 450.19 86.25C449.02 85.08 448.1 83.73 447.44 82.19C446.77 80.6 446.44 78.94 446.44 77.19L446.44 13.19C446.44 11.44 446.77 9.79 447.44 8.25C448.1 6.67 449.02 5.31 450.19 4.19C451.35 3.02 452.71 2.1 454.25 1.44C455.83 0.73 457.5 0.37 459.25 0.37L510.44 0.37C512.19 0.37 513.83 0.73 515.37 1.44C516.96 2.1 518.33 3.02 519.5 4.19C520.67 5.31 521.58 6.67 522.25 8.25C522.92 9.79 523.25 11.44 523.25 13.19L523.25 77.19ZM459.25 13.19L459.25 77.19L510.44 77.19L510.44 13.19L459.25 13.19ZM546.31 13.19C546.31 11.44 546.65 9.79 547.31 8.25C547.98 6.67 548.9 5.31 550.06 4.19C551.23 3.02 552.58 2.1 554.12 1.44C555.71 0.73 557.37 0.37 559.12 0.37L607.75 0.37C609.5 0.37 611.15 0.73 612.69 1.44C614.27 2.1 615.65 3.02 616.81 4.19C617.98 5.31 618.9 6.67 619.56 8.25C620.23 9.79 620.56 11.44 620.56 13.19L620.56 24.75L607.75 24.75L607.75 13.19L559.12 13.19L559.12 77.19L607.75 77.19L607.75 65.69L620.56 65.69L620.56 77.19C620.56 78.94 620.23 80.6 619.56 82.19C618.9 83.73 617.98 85.08 616.81 86.25C615.65 87.42 614.27 88.33 612.69 89C611.15 89.67 609.5 90 607.75 90L559.12 90C557.37 90 555.71 89.67 554.12 89C552.58 88.33 551.23 87.42 550.06 86.25C548.9 85.08 547.98 83.73 547.31 82.19C546.65 80.6 546.31 78.94 546.31 77.19L546.31 13.19ZM653.87 0.37L653.87 39.06L696.62 0.37L714.69 0.37L666.19 44.31L716.62 90L698.56 90L653.87 49.69L653.87 90L641.06 90L641.06 0.37L653.87 0.37ZM741.12 51.62C739.37 51.62 737.71 51.29 736.12 50.62C734.58 49.92 733.23 49 732.06 47.87C730.9 46.71 729.98 45.35 729.31 43.81C728.65 42.23 728.31 40.56 728.31 38.81L728.31 13.19C728.31 11.44 728.65 9.79 729.31 8.25C729.98 6.67 730.9 5.31 732.06 4.19C733.23 3.02 734.58 2.1 736.12 1.44C737.71 0.73 739.37 0.37 741.12 0.37L784.62 0.37C786.37 0.37 788.02 0.73 789.56 1.44C791.15 2.1 792.52 3.02 793.69 4.19C794.85 5.31 795.77 6.67 796.44 8.25C797.1 9.79 797.44 11.44 797.44 13.19L797.44 24.75L784.62 24.75L784.62 13.19L741.12 13.19L741.12 38.81L784.62 38.81C786.37 38.81 788.02 39.15 789.56 39.81C791.15 40.48 792.52 41.4 793.69 42.56C794.85 43.73 795.77 45.1 796.44 46.69C797.1 48.23 797.44 49.87 797.44 51.62L797.44 77.19C797.44 78.94 797.1 80.6 796.44 82.19C795.77 83.73 794.85 85.08 793.69 86.25C792.52 87.42 791.15 88.33 789.56 89C788.02 89.67 786.37 90 784.62 90L739.87 90C738.12 90 736.46 89.67 734.87 89C733.33 88.33 731.98 87.42 730.81 86.25C729.65 85.08 728.73 83.73 728.06 82.19C727.4 80.6 727.06 78.94 727.06 77.19L727.06 65.69L739.87 65.69L739.87 77.19L784.62 77.19L784.62 51.62L741.12 51.62Z" />
	</g>
</svg>